<svg version="1.1" xmlns="http://www.w3.org/2000/svg" viewBox="0 0 1320 842.75" width="1320" height="842.75">
  <!-- svg-source:excalidraw -->
  
  <defs>
    <style>
      @font-face {
        font-family: "Virgil";
        src: url("https://excalidraw.com/Virgil.woff2");
      }
      @font-face {
        font-family: "Cascadia";
        src: url("https://excalidraw.com/Cascadia.woff2");
      }
    </style>
  </defs>
  <rect x="0" y="0" width="1320" height="842.75" fill="#ffffff"></rect><g stroke-linecap="round" transform="translate(438.24999999999994 93.24999999999997) rotate(0 391.5 338.5)"><path d="M0.67 -0.71 C228.8 3.37, 455.83 3.25, 783.17 -0.38 M783.7 0.07 C781.38 243.02, 781.14 486.31, 782.73 676.3 M783.62 677.49 C521.52 678.18, 259.62 677.17, 0.68 676.82 M-0.23 677.02 C-0.69 424.81, -1.39 171.73, -0.57 -0.11" stroke="#000000" stroke-width="1.5" fill="none" stroke-dasharray="8 9"></path></g><g stroke-linecap="round" transform="translate(471.24999999999994 119.24999999999997) rotate(0 237.5 152)"><path d="M0.35 -0.37 C111.15 0.81, 222.49 1.01, 475.36 0.75 M0.12 -0.38 C155.93 0.92, 311.67 0.87, 474.71 0.4 M474.73 -1.22 C476.67 63.12, 476.45 123.88, 474.53 304.81 M475.03 0.1 C475.26 110.39, 475.82 220.56, 475.6 304.24 M475.07 303.29 C324.52 306.91, 171.93 306.42, -0.07 304.52 M475 303.64 C290.61 303.73, 106.96 303.55, 0.04 303.92 M0.48 303.2 C-0.57 191.45, 1.62 80.22, 0.08 0.87 M0.66 304.16 C-1.29 188.08, -0.69 71.1, -0.54 0.36" stroke="#e67700" stroke-width="1" fill="none"></path></g><g transform="translate(499.24999999999994 134.24999999999997) rotate(0 92.5 13)"><text x="0" y="18" font-family="Virgil, Segoe UI Emoji" font-size="20px" fill="#000000" text-anchor="start" style="white-space: pre;" direction="ltr">eu-west-3a subnet</text></g><g stroke-linecap="round" transform="translate(470.74999999999994 441.25) rotate(0 237.5 158)"><path d="M-0.58 0.08 C143.41 -1.96, 286.19 -1.08, 474.57 0.38 M-0.33 -0.18 C137.61 0.15, 275.37 -0.08, 474.91 0.07 M476.31 -1.32 C475.28 110.75, 473.85 221.33, 476.15 317.38 M475.35 -0.35 C473.94 104.08, 473.78 209.47, 475.42 316.28 M475.28 315.42 C354.52 315.73, 233.83 315.42, -0.29 316.57 M474.82 316.25 C295.21 314.98, 114.7 315.1, -0.11 316.34 M-0.25 314.72 C-0.91 211.16, -1.08 104.91, -0.65 -0.68 M-0.54 315.75 C0.89 201.38, -0.08 87.34, -0.08 0.62" stroke="#e67700" stroke-width="1" fill="none"></path></g><g transform="translate(498.74999999999994 462.25) rotate(0 91 13)"><text x="0" y="18" font-family="Virgil, Segoe UI Emoji" font-size="20px" fill="#000000" text-anchor="start" style="white-space: pre;" direction="ltr">eu-west-3b subnet</text></g><g stroke-linecap="round" transform="translate(523.25 248.24999999999997) rotate(0 178 69)"><path d="M0 0 C0 0, 0 0, 0 0 M0 0 C0 0, 0 0, 0 0 M-0.5 6.59 C1.22 4.2, 3.46 3.39, 5.59 -0.12 M-0.2 6.21 C1.22 4.71, 3.04 2.89, 4.92 0.7 M-1.33 11.69 C2.2 8.94, 8.67 4.84, 12.07 0.24 M-0.04 11.58 C3.1 8.1, 5.53 6.01, 11.33 -0.75 M1.85 17.72 C6.85 12.17, 10.49 5.45, 17.08 -0.62 M-0.85 19.22 C3.87 13.24, 8.21 7.29, 15.08 1.06 M0.18 25.32 C8.17 14.17, 14.81 5.64, 22.69 -1.2 M0.99 24.34 C7.97 14.13, 16.44 6.26, 22.16 -0.22 M-0.84 31.38 C7.99 18.31, 18.51 10.21, 24.96 0.82 M-0.06 31.04 C4.69 24.15, 11.18 17.28, 26.9 -0.06 M0.17 37.88 C10.42 22.73, 23.97 9.59, 31.89 0.91 M-0.12 37.16 C9.65 25.28, 20.44 11.96, 31.02 -0.82 M-0.19 41.57 C8.92 35.56, 16.23 27.02, 38.08 -0.78 M0.88 43.19 C10.51 30.03, 20.96 17.81, 36.21 -0.23 M-0.59 49.63 C9.04 38.76, 17.28 27, 43.55 -1.97 M-1.12 48.3 C9.71 38.6, 16.39 30.44, 42.12 -0.52 M-0.78 53.85 C18.57 33.91, 36.55 13.11, 48.04 1.18 M1.04 53.83 C13.59 40.49, 25.78 24.6, 46.83 -0.69 M0.72 62.06 C18.08 38.3, 36.92 17.13, 53.84 -0.55 M0.22 61.18 C14.02 43.21, 30.23 25.93, 52.85 0.24 M0.78 68.35 C17.6 45.84, 36.01 26.08, 60.1 2.12 M0.25 67.2 C23.2 40.28, 44.79 14.28, 57.53 1.12 M1.23 72.72 C15.06 54.74, 27.8 39.33, 65.62 -1.73 M-0.27 72.33 C20.9 48.7, 43.13 23.74, 63.08 -0.67 M0.5 78.8 C24.7 53.76, 49.09 24.05, 67.18 0.32 M0.73 79.59 C23.44 52.56, 48.24 25.25, 68.99 0.63 M1.73 86.01 C30.03 50.1, 58.69 17.77, 74.36 1.43 M1.15 85.11 C20.71 61.3, 41.94 37.62, 74.05 -0.07 M1.11 91.03 C15.26 70.2, 32.65 50.57, 79.85 -1.07 M0.15 90.9 C24.67 62.8, 48.76 34.54, 78.8 1.07 M0.01 95.95 C30.38 62.43, 60.23 30.09, 86.23 -0.25 M0.49 97.43 C27.28 64.15, 56.97 32.99, 85.47 -0.41 M0.62 101.97 C29.53 69.32, 57.92 37.73, 88.33 -0.11 M-0.75 102.59 C34.78 62.04, 69.76 21.44, 90.49 0.52 M-0.51 109.12 C18.34 87.87, 39.63 64.5, 96.02 -2.15 M-0.36 109.8 C29.93 76.17, 59.41 42.44, 96.44 -0.85 M1.72 114.38 C29.23 82.22, 61.14 44.56, 100.51 2.03 M0.22 115.45 C30.82 80.75, 63.54 43.79, 100.51 0.85 M-0.74 123.2 C25.39 92.55, 53.75 59.58, 105.19 0.22 M-0.55 122.8 C28.99 86.15, 60.14 52.3, 106.49 -0.2 M1.08 127.62 C25.64 96.84, 49.5 67.72, 111.93 -1 M-1.02 127.37 C40.45 82.44, 77.55 38.78, 111.22 0.8 M-1.25 133.98 C46.57 82.25, 91.02 30.17, 115.21 1.94 M-0.63 133.09 C38.39 89.57, 75.35 45.76, 115.92 0.81 M-0.67 139.13 C24.95 109.3, 50.8 78.04, 123.78 1.3 M2.18 139.76 C44.93 85.92, 92.66 32.25, 121.92 0.92 M4.92 139.29 C38.76 104.78, 67.56 68.93, 128.17 -0.31 M5.63 138.36 C52.84 84.25, 100.72 29.72, 127.41 -0.5 M12.33 136.89 C40.45 104.87, 71.44 69.66, 132.91 -1.73 M11.47 139.11 C40.99 103.06, 72.14 70.21, 131.8 0.59 M17.2 140.12 C61.13 85, 109.08 35.15, 136.83 2.21 M17.21 139.46 C41.27 109.66, 66.04 80.83, 137.11 0.8 M24.2 137.63 C57.99 93.95, 94.71 53.32, 141.84 0.1 M21.52 138.09 C46.86 110.64, 71.79 81.76, 143.01 -0.99 M29.36 138.04 C75.11 85.54, 122.42 30.09, 149.28 1.38 M26.7 138.79 C74.99 85.16, 122.48 30.28, 148.24 1.21 M34.89 139.31 C67.78 102.56, 100.18 65.73, 152.72 -0.18 M32.62 139.13 C64.53 103.72, 94.27 66.51, 153.6 0.23 M39.47 140.23 C80.15 91.11, 123.07 38.7, 158.27 -1.1 M37.22 138.34 C80.37 90.75, 122.37 42.16, 159.42 0.55 M45.04 137.78 C90.77 85.37, 136.51 30.82, 165.39 -0.7 M44.47 138 C70.15 108.83, 96.68 78.3, 164.54 0.09 M47.19 138.67 C86.67 93.99, 125.52 50.51, 171.2 0.31 M48.82 139.9 C92.76 90.74, 134.05 41.8, 169.74 0.97 M53.91 136.69 C82.27 107.29, 112.27 74.01, 175.31 -0.73 M55.19 138.78 C85.38 102.3, 116.33 66.01, 174.74 -0.7 M59.9 140.22 C100.38 93.71, 139.61 49.48, 180.12 1.01 M59.45 138.11 C92.79 100.56, 125.32 63.05, 179.66 -0.04 M65.43 137.57 C108.73 89.79, 153.93 40.54, 187.62 1.28 M64.34 138.89 C109.57 87.15, 156.54 33.95, 186 0.37 M70.6 140.55 C117.24 82.22, 165.5 28.98, 191.74 0.22 M69.99 139.42 C98.88 103.25, 130.37 69.63, 190.1 -0.68 M74.19 137.78 C122.49 88.34, 167.28 32.69, 195.11 -2.25 M75.87 138.08 C110.87 98.28, 147.63 56.91, 196.09 0.66 M79.95 138.21 C128.72 85.68, 174.77 35.51, 201.42 -0.97 M81.25 139.12 C107.97 106.78, 134.22 75.83, 201.39 0.19 M86.78 141.26 C129.29 87.56, 170.09 40.16, 208.22 -2.09 M86.52 140.18 C130.01 88.27, 173.71 38.72, 207.65 -0.66 M90.28 140.56 C120.7 100.44, 153.6 67.03, 211.21 -1.64 M90.95 138.32 C140.91 83.57, 188.42 28.61, 212.27 0.03 M94.4 137.57 C143.99 84.94, 194.69 26.52, 217.06 -2.13 M95.42 139.08 C129.42 102.63, 161.69 63.14, 217.28 0.41 M103.56 137.82 C137.62 100.79, 170.93 58.81, 223.76 0.96 M102.75 138.96 C146.79 85.67, 190.77 35.78, 222.91 -0.36 M106.96 140.33 C131.69 107.41, 161.92 77.77, 229.39 -1.44 M107.15 138.27 C149.9 87.51, 194.75 37.16, 228.48 -0.3 M111.42 137.05 C139.11 109.69, 166.68 79.36, 232.43 1.46 M113.21 138.82 C138.61 108.24, 165.77 76.73, 233.92 0.14 M117.66 138.3 C147.99 102.5, 177.75 69.41, 239.95 0.51 M117.36 138.8 C152.19 98.43, 187.12 58.21, 238.03 0.63 M121.15 140.17 C159.18 97.86, 191.48 60.53, 243.2 0.3 M122.83 138.48 C149.12 108.97, 174.2 79.44, 243.3 -0.02 M128.38 138.04 C164.13 101.22, 197.45 57.69, 247.15 -1.15 M127.13 139.06 C167.81 94.98, 207.65 50.31, 249.59 0.19 M133.71 137.92 C160.93 103.93, 192.8 70.67, 252.72 1.78 M133.01 138.38 C169.14 96.91, 205.18 54.86, 253.49 -0.06 M139.64 137.97 C166.83 108.46, 193.61 77.35, 259.04 1.79 M137.96 139.77 C176.14 96.07, 212.4 54.08, 258.77 0.43 M145.68 139.89 C180.26 95.86, 215.31 55.05, 266.29 0.04 M145.11 137.77 C190.34 85.51, 237.06 32.17, 264.35 0.12 M148.62 138.37 C190.03 94.47, 228.49 46.84, 270.01 1.64 M148.76 138.97 C183.11 100.72, 218.77 59.15, 270.77 0.51 M155.34 140.52 C202.32 84.94, 252.77 27.08, 275.89 1.06 M155.36 137.74 C189.4 98.13, 225.56 58.3, 276.17 -1.05 M159.15 139.34 C185.66 111.67, 207.95 82.07, 282.1 1.57 M160.9 139.04 C190.01 104.86, 221.96 66.9, 280.72 0.4 M164.59 137.09 C205.86 91.93, 244.51 48.54, 286.12 0.67 M165.95 138.18 C191.65 110.58, 217.77 78.89, 286.64 0.2 M171.74 138.83 C193.02 109.66, 219.8 79.12, 291.01 1.57 M171.12 139.66 C198.26 107.74, 227.75 72.95, 290.64 -0.1 M177.01 139.73 C203.29 107.18, 227.85 80.31, 296.26 -1.45 M175.99 138.85 C204.34 105.4, 233.07 74.16, 297.89 -0.04 M181.51 138.64 C205.57 110.06, 231.73 81.63, 300.09 0.48 M180.62 138.88 C227.61 84.56, 274.76 31.93, 302.49 -0.37 M187.82 137.4 C214.32 105.17, 243.46 74.48, 306.24 0.21 M186.49 138.31 C233.88 83.96, 280.38 30.98, 307.46 -0.35 M192.3 138.4 C223.35 103.76, 252.21 64.79, 314.34 2 M192 138.03 C225.95 99.57, 259.82 61.8, 313.17 0.06 M197.91 139.92 C233.15 101.26, 266.38 60.91, 318.65 -1 M197.41 138.95 C226.63 104.69, 254.66 72.65, 317.34 -0.99 M202.54 137.62 C238.4 96.54, 275.69 54.69, 322.43 0.65 M202.31 138.82 C233.45 104.44, 262.96 69.67, 323.48 0.48 M207.15 140.69 C248.8 88.21, 294.86 41.65, 328.73 -1.87 M207.95 138.75 C241.99 98.44, 277.29 55.67, 328.89 -0.89 M211.37 137.6 C248.31 99.22, 284.23 56.5, 334.69 -0.2 M213.98 138.25 C242.6 106.09, 270.74 72.38, 333.13 -0.02 M219.06 139.71 C255.42 98.52, 295.49 52.41, 338.37 0.64 M218.21 139.26 C261.46 88.15, 307.06 36.32, 339.95 -0.63 M224.55 139.52 C254.15 105.75, 285.5 70.76, 345.08 1.68 M223.9 139.66 C264.94 91.42, 305.3 45.82, 343.79 0.53 M226.84 138.08 C265.15 93.76, 305.71 52.65, 349.48 0.19 M228.24 139.1 C260.29 104.29, 291.18 68.11, 349.08 1.25 M232.51 138.41 C257.33 108.69, 281.56 82.67, 353.24 1.35 M234.35 139.71 C267.13 101.78, 298.03 64.81, 356.01 -0.12 M237.99 140.98 C266.85 104.55, 295.54 71.71, 359.27 1.5 M239.69 139.98 C265.93 108.45, 292.23 77.64, 357.94 1.84 M244.35 137.1 C275.85 102.8, 307.22 66.12, 359.25 9.01 M244.07 139.42 C276.44 103.54, 305.85 68.94, 359.08 8.93 M251.67 140.43 C270.61 111.31, 294.48 86.34, 356.43 13.72 M250.11 138.44 C283.97 99.27, 319.5 58.5, 358.43 14.07 M253.8 140.32 C294.39 97.18, 331.44 53.41, 359.99 18.89 M255.19 139.09 C278.92 112.57, 304.18 83.69, 358.34 19.59 M260.71 137.33 C290.74 105.09, 318.31 70.67, 359.96 27.19 M259.96 138.84 C289.49 103.7, 319.84 71.06, 358.54 26.58 M265.27 140.6 C290.4 111.01, 316.02 83.89, 359.34 32.81 M266.27 139.38 C302.16 98.61, 338.97 56.27, 358.42 31.34 M269.58 139.38 C288.8 120.32, 307.66 98.15, 358.4 38.94 M271.66 138.38 C296.72 111.75, 319.38 84.43, 358.53 38.19 M275.8 140.34 C305.8 103.21, 338.23 65.19, 358.89 45.95 M277.3 138.28 C305.39 103.74, 335.56 70.97, 358.9 46 M280.43 139.14 C312.41 104.27, 341.62 68.33, 359.59 49.07 M282.51 138.07 C300.72 118.18, 319.64 95.96, 357.76 51.24 M289.12 137.77 C301.18 124.3, 316.51 106.23, 357.89 58.09 M286.68 138.09 C312.82 110.61, 338.33 80.53, 359.29 57.99 M291.02 140.03 C316.23 112.66, 338.82 85.02, 360.01 63.53 M291.76 139.77 C318.26 109.59, 344.3 78.57, 358.98 63.45 M297.58 136.97 C324 111.86, 344.23 84.85, 359.24 68.11 M298.24 138.44 C321.17 113.26, 344.05 88.06, 358.03 69.79 M304.82 138.3 C321.72 120.84, 338.17 100.85, 358.15 76.88 M303.58 139.14 C325.02 113.17, 345.54 87.78, 358.73 75.6 M308.21 137.85 C325.62 118.03, 340.21 97.99, 358.17 80.97 M308.23 139.32 C326.42 118.63, 345.53 97.29, 358.15 81.98 M312.93 137.02 C329.27 121.81, 344.06 102.02, 359.15 87.25 M314.05 138.69 C327.72 123.23, 341.17 106.81, 358.93 87.53 M320.04 138.94 C333.16 123.43, 347.81 104.4, 359.56 94.5 M319.67 138.75 C331.75 124.11, 342.91 109.74, 359.58 92.94 M324.1 140.15 C333.62 125.87, 345.45 115.68, 356.79 98.87 M324.18 138.76 C332.63 129.52, 342.77 118.11, 357.95 99.69 M328.72 140.34 C342.34 126.49, 351.15 113.12, 359.3 106.09 M329.95 138.85 C338.94 128.37, 347.32 117.25, 357.54 106.65 M334.74 138.46 C341.23 134.65, 347.56 125.81, 358.21 113.08 M334.9 138.5 C343.11 128.58, 351.74 119.08, 358.24 111.08 M340.57 138.25 C345.5 135.54, 349.46 131.47, 356.89 119.74 M339.95 139.34 C347.34 132.12, 353.28 124.87, 358.12 118.66 M346.94 139.59 C349.77 135.65, 353.03 128.09, 357.16 123.04 M346.05 138.91 C349.6 135.54, 351.31 132.71, 358.69 123.04 M349.83 139.67 C352.73 136.82, 356.79 133.31, 357.95 129.19 M351.23 139.37 C352.91 136.91, 355.29 133.46, 359.06 129.83" stroke="#228be6" stroke-width="0.5" fill="none"></path><path d="M0.13 0.57 C116.92 0.92, 234.76 -0.05, 356.73 1.15 M-0.09 0.56 C81.24 2.53, 162.2 2.67, 356.33 -0.12 M356.39 -0.18 C357.81 43.28, 357.17 87.16, 356 139.1 M355.98 0.87 C356.08 46.09, 356.96 93.5, 355.26 138.55 M357.28 138.73 C283.28 138.71, 212.9 139.58, 0.34 139.03 M355.37 138.01 C219.78 139.42, 82.83 139.7, 0.4 137.67 M-0.65 138.68 C1.29 87.9, -2.61 33.31, 0.57 0.82 M-0.69 138.27 C-0.63 84.36, 0.16 31.87, 0.8 -0.13" stroke="#1864ab" stroke-width="1" fill="none"></path></g><g transform="translate(534.25 258.25) rotate(0 53.5 13)"><text x="0" y="18" font-family="Virgil, Segoe UI Emoji" font-size="20px" fill="#000000" text-anchor="start" style="white-space: pre;" direction="ltr">Container 1</text></g><g stroke-linecap="round" transform="translate(541.25 300.25) rotate(0 62 32.5)"><path d="M-0.43 -0.89 C46.9 -0.74, 93.18 0.16, 125.63 -0.63 M0.82 0.51 C34.33 -0.94, 69.5 0.08, 124.7 0.94 M123.47 1.48 C123.68 24.19, 124.19 49.4, 122.92 66.79 M124.5 -0.54 C124.4 24.86, 124.05 50.61, 123.55 65.15 M125.44 65.72 C76.26 66.45, 30.49 65.14, -1.39 63.9 M124.77 64.01 C93.39 66.46, 63.06 65.22, -0.35 64.55 M0.09 64.91 C1.82 41.36, 0.07 14.86, 0.91 0.53 M0.94 65.27 C-0.32 40.13, -0.37 13.61, 0.18 0.5" stroke="#000000" stroke-width="1" fill="none"></path></g><g transform="translate(554.25 300.25) rotate(0 24 13)"><text x="0" y="18" font-family="Virgil, Segoe UI Emoji" font-size="20px" fill="#000000" text-anchor="start" style="white-space: pre;" direction="ltr">Nginx</text></g><g stroke-linecap="round" transform="translate(719.25 300.25) rotate(0 63 33)"><path d="M1.44 0.72 C45.6 1.68, 93.18 0.37, 124.61 -1.1 M0.77 -0.99 C31.01 -0.23, 62.3 -1.47, 125.65 -0.45 M126.09 -0.09 C127.08 25.03, 125.33 47.21, 126.91 66.53 M126.94 0.27 C125.47 26.16, 125.43 50.67, 126.18 66.5 M127.11 67.64 C96.17 66.05, 65 65.74, 0.05 66.07 M125.8 65.86 C80.14 67.14, 33.52 66.03, 0.8 65.3 M-1.22 67.52 C-0.06 46.78, -1.55 27.38, -0.22 -1.99 M-0.62 66.6 C0.31 51.44, 0.99 38.77, 0.43 0.97" stroke="#000000" stroke-width="1" fill="none"></path></g><g transform="translate(729.25 304.25) rotate(0 35 26)"><text x="0" y="18" font-family="Virgil, Segoe UI Emoji" font-size="20px" fill="#000000" text-anchor="start" style="white-space: pre;" direction="ltr">Landing</text><text x="0" y="44" font-family="Virgil, Segoe UI Emoji" font-size="20px" fill="#000000" text-anchor="start" style="white-space: pre;" direction="ltr">Page</text></g><g stroke-linecap="round"><g transform="translate(665.25 321.25) rotate(0 27.736475169286138 -0.6780422031564797)"><path d="M-1.14 -0.12 C8.35 -0.36, 47.29 -0.96, 56.62 -1.1 M0.46 -1.23 C9.88 -1.38, 46.55 -0.33, 55.99 -0.13" stroke="#000000" stroke-width="1" fill="none"></path></g><g transform="translate(665.25 321.25) rotate(0 27.736475169286138 -0.6780422031564797)"><path d="M29.26 9.82 C34.82 4.64, 42.35 2.99, 53.99 -1.38 M30.42 8.39 C39.49 6.35, 50.88 1.28, 55.47 -0.49" stroke="#000000" stroke-width="1" fill="none"></path></g><g transform="translate(665.25 321.25) rotate(0 27.736475169286138 -0.6780422031564797)"><path d="M29.72 -9.32 C35.21 -9.3, 42.61 -5.74, 53.99 -1.38 M30.88 -10.75 C39.64 -5.33, 50.84 -2.93, 55.47 -0.49" stroke="#000000" stroke-width="1" fill="none"></path></g></g><g stroke-linecap="round"><g transform="translate(663.25 346.25) rotate(180 27.38993419676089 -0.3699776061438058)"><path d="M-0.23 -0.15 C9.31 -0.33, 47.17 -0.73, 56.58 -0.66 M-1.8 -1.28 C7.68 -1.34, 46.37 0.04, 55.94 0.54" stroke="#000000" stroke-width="1" fill="none"></path></g><g transform="translate(663.25 346.25) rotate(180 27.38993419676089 -0.3699776061438058)"><path d="M29 9.97 C34.71 7.39, 42.83 2.94, 55.01 0.49 M29.41 9.42 C36.06 7.02, 44.82 3.96, 55.58 0.35" stroke="#000000" stroke-width="1" fill="none"></path></g><g transform="translate(663.25 346.25) rotate(180 27.38993419676089 -0.3699776061438058)"><path d="M29.8 -9.16 C35.38 -7.03, 43.3 -6.76, 55.01 0.49 M30.22 -9.72 C36.58 -6.72, 45.11 -4.39, 55.58 0.35" stroke="#000000" stroke-width="1" fill="none"></path></g></g><g stroke-linecap="round" transform="translate(526.25 576.25) rotate(0 178 69)"><path d="M0 0 C0 0, 0 0, 0 0 M0 0 C0 0, 0 0, 0 0 M0.36 5.97 C1.17 5.26, 3.17 3.67, 4.53 0.3 M-0.29 6.79 C1.77 4.46, 3.35 1.77, 4.96 0.26 M-0.1 13.32 C3.25 6.35, 9.41 2.13, 11.66 -1.52 M-0.31 12.27 C4.14 7.57, 9.22 2.04, 11.33 -0.43 M0.26 18.73 C2.44 15.15, 9.31 10.16, 14.92 1.81 M0.19 17.93 C3.81 13.64, 7.59 9.79, 14.67 1.18 M0.14 25.66 C7.21 16.48, 11.45 10.79, 21.28 0.94 M-0.27 24.87 C6.38 17.65, 13.02 9.66, 20.39 0.71 M-0.7 31.34 C6.84 22.2, 17.08 9.09, 26.53 -0.97 M0.93 31.14 C9.47 21.72, 17.68 12.13, 27.16 -0.64 M-0.26 38.76 C9.74 24.32, 19.77 10.15, 31.98 0.99 M0.37 36.55 C11.76 23.96, 22.14 11.27, 31.05 -1.04 M1.16 40.84 C9.8 30.55, 19.44 18.83, 34.96 -1.26 M0.32 41.68 C10.01 30.68, 21.67 18.67, 37.18 -0.41 M-1.62 50.21 C10.8 38.97, 17.56 26.84, 43.46 -1.28 M-0.48 49.87 C8.37 38.34, 18.69 26.99, 42.8 0.28 M-0.57 55.55 C11.14 44.38, 21.96 32.03, 46.36 -0.51 M-0.4 54.65 C10.44 42.6, 21.94 28.73, 46.82 0.74 M-0.33 59.16 C17.78 40.62, 31.89 25.27, 52.05 -0.74 M0.57 61.52 C17.69 42.39, 32.98 22.23, 52.8 0.1 M-0.11 69.24 C18.91 43.32, 38.22 23.37, 58.71 1.47 M-0.79 67.33 C18.67 43.94, 39.5 21.07, 58.53 0.6 M-0.28 73.7 C27.01 44.38, 50.02 16.74, 64.9 -1.63 M-0.12 72.33 C24.48 47.04, 46.69 19.28, 63.02 0.31 M1.14 80.02 C19.52 60.4, 34.19 39.57, 67.84 0.54 M0.36 79.13 C22.43 53.55, 46.1 27.53, 68.06 0.88 M0.48 85.54 C28.27 53.29, 55.66 17.87, 74.01 0.48 M1.16 85.1 C17.01 65.41, 33.16 46.91, 75.24 0.21 M0.64 92.98 C28.19 56.72, 56.87 24.72, 77.42 -1.81 M0.14 91.17 C28.87 58.43, 58.1 25.46, 79.5 0.21 M-0.91 96.82 C29.2 63.88, 58.35 33.1, 86.22 0.68 M-0.22 98.26 C28.4 62.58, 58.16 29.61, 84.12 -0.5 M-0.64 103.06 C22.66 77.82, 43.07 56.14, 88.96 -0.41 M1.11 104.23 C30.37 68.27, 59.9 32.53, 90.28 -0.86 M0.5 111.08 C39.54 65.16, 76.97 22.57, 97.22 -1.28 M0.41 109.92 C23.8 82.45, 48.5 54.04, 96.09 -0.67 M-0.89 113.89 C22.44 88.6, 41.08 64.19, 99.83 -0.42 M-0.33 114.52 C41.28 68.99, 81.58 23.89, 100.13 -0.84 M-0.46 123.76 C34.64 81.8, 67.86 43.83, 105.54 0.98 M0.07 121.38 C27.5 86.41, 58.66 54, 106.46 -0.73 M-0.1 128.49 C31.95 94.13, 62.59 61, 113.23 0.61 M0.39 127.42 C27.22 97.32, 53.41 69.33, 112.14 -0.35 M1.54 133.23 C36.54 92.04, 75.89 47.39, 117.9 -0.71 M-0.22 133.1 C28.58 100.34, 55.56 69.06, 115.66 1.05 M1.84 138.78 C38.27 96.74, 72.4 55.04, 120.19 -1.17 M0.94 137.95 C44.03 90.1, 87.56 37.77, 121.71 0.95 M5.58 140.68 C53.25 84.71, 100.74 32.58, 125.83 1.85 M6.78 139.67 C48.42 92, 90.57 44.38, 126.97 0.57 M12.5 138.04 C38.18 108.14, 65.39 75.88, 133.63 -1.97 M12.42 138.27 C44.4 101.06, 76.13 63.76, 131.56 -0.71 M17.35 139.3 C42.41 106.55, 70.27 75.84, 135.73 -0.23 M16.43 139.9 C53 96.07, 91 53.44, 137.49 -0.59 M23.88 139.07 C61.13 95.67, 99.86 51.11, 142.25 -0.35 M23.34 138.86 C54.15 102.04, 85.9 67.08, 142.75 -0.17 M27.13 139.7 C61.11 100.01, 96.51 58.24, 149.51 2.08 M27.13 139.31 C53.54 108.64, 80.63 76.74, 147.82 0.82 M32.01 138.79 C66.89 100.27, 98.43 62.58, 152.66 0.79 M32.26 138.01 C79.42 86.83, 124.22 34.15, 153.68 -0.34 M39.61 138.84 C76.07 93, 118.03 46.59, 157.92 -1.54 M37.21 140.03 C70.17 101.29, 103.69 63.25, 158.38 -0.53 M41.77 138.73 C81.47 93.24, 123.33 51.45, 163.26 0.21 M43.52 139.46 C83.59 92.85, 124 45.28, 165.06 0.8 M47.34 139.36 C82.92 100.73, 117.43 60.63, 170.56 1.25 M49.31 139.14 C78.05 107.18, 105.7 74.6, 168.44 0.46 M52.86 139.12 C93.12 93.04, 131.67 48.07, 174.32 0.33 M54.32 139.37 C98.74 88.92, 141.8 37.34, 174.92 -0.84 M60.72 139.55 C105.68 88.6, 148.84 37.96, 181.85 -0.57 M59.42 139.64 C105.26 86.21, 152.01 31.35, 179.07 0.29 M65.86 136.83 C94.86 100.02, 130.39 61.23, 185.95 1.22 M65.68 139.32 C107.09 91.53, 148.6 43.07, 185.65 -0.4 M69.98 139.36 C115.67 86.98, 160.3 34.13, 189.09 0.67 M69.85 139.43 C93.34 111.38, 117.44 83.81, 190.18 -0.08 M76.18 139.36 C122.38 85.64, 174.18 29.49, 196.11 -1.4 M75.45 139.3 C112.06 96.85, 149.27 53.65, 196.94 -1.1 M79.19 138.39 C127.39 83.64, 178.18 29.81, 202.39 1.26 M80.24 138.35 C106.47 107.14, 134.75 76.61, 201.51 -0.3 M87.39 139.67 C114.74 100.4, 149.74 65.91, 206.58 -2.14 M84.64 139.49 C125.35 94.09, 163.77 49.7, 206.82 -1.26 M92.27 137.9 C125.19 97.99, 161.5 58.46, 210.73 0.16 M90.54 139.16 C115.49 111.45, 139.4 82.53, 211.64 0.4 M95.91 139.08 C126.66 102.6, 160.45 67.3, 217.01 0.03 M97.09 140.23 C142.78 87.2, 188.08 35.78, 216.64 -1.25 M103 138.8 C127.4 110.82, 150.38 82.65, 223.91 1 M102.06 138.54 C148.54 83.8, 197.02 30.06, 222.94 0.24 M105.03 137.83 C144.66 97.25, 182.64 52.41, 226.89 -0.18 M106.45 139.54 C146.5 90.84, 187.48 45.01, 228.09 -0.54 M112.98 139.66 C146.35 101.97, 177.86 65.38, 234.59 -1.95 M112.42 138.08 C136.57 110.41, 162.04 81.08, 232.65 -0.17 M117.51 138.07 C163.52 88.92, 209.4 34.54, 236.88 0.33 M117.89 139.1 C163.24 84.83, 210.36 32.93, 237.53 0.09 M121.66 138.71 C159.9 97.57, 193.25 59, 244.28 -1.77 M122.55 139.32 C170.69 85.95, 216.57 30.99, 243.82 -0.77 M128.99 138.62 C169.8 90.08, 211.18 42.43, 249.47 0.05 M128.4 140.02 C172.34 87.12, 216.62 36.8, 249.6 0.51 M132.33 139.83 C168.07 99.84, 203.05 57.56, 253.31 -0.87 M133.75 138.7 C162.42 103.51, 192.66 67.59, 254.32 0.89 M137.93 140.92 C178.86 91.56, 223.68 38.55, 259.02 -0.58 M137.8 139.84 C169.75 102.98, 200.76 68.64, 260.32 0.79 M146.15 138.56 C180.69 96.99, 218.59 52.6, 266.87 -1 M144.62 138.59 C168.53 112.86, 192.94 84.21, 265.87 0.72 M147.65 139.1 C178.73 104.45, 208.27 69.54, 268.38 -0.26 M149.73 139.5 C180.18 104.57, 211.01 67.99, 270.69 1.14 M156.09 140.1 C181.45 108.8, 211.86 76.38, 276.99 -1.26 M154.09 138.26 C184.89 105.24, 213.43 70.79, 275 -0.97 M160.3 137.94 C201.49 93.64, 239.56 46.69, 282.26 2 M160.66 138.39 C200.03 91.61, 241.69 42.27, 281.03 -0.28 M164.98 137.31 C213.38 81.51, 261.44 27.58, 284.55 -0.1 M166.42 138.94 C199.77 102.06, 233.04 62.88, 286.07 -0.46 M170.88 138.85 C193.85 112.11, 219.27 81.08, 293.21 0.82 M170.89 139.29 C209.53 92.23, 247.35 47.7, 291.99 -0.41 M175.49 136.68 C214.5 92.28, 255.25 44.3, 297.26 -1.32 M176.2 138.76 C221.74 85.3, 267.69 34.43, 296.27 0.42 M181.24 137.94 C224.71 92.67, 264.87 42.95, 303.61 -1.49 M181.57 139.43 C222.7 94.04, 263.18 46.98, 301.55 -0.25 M188.14 140.38 C219.5 102.5, 249.34 65.01, 307.7 -0.03 M187.36 137.77 C226.87 92.04, 267.08 47.75, 306.63 -0.77 M190.05 139.94 C229.15 93.62, 268.29 51.43, 311.7 -1 M191.63 139.44 C236.61 88.15, 279.85 36.71, 312.02 0.12 M199.29 140.24 C239.9 89.46, 279.48 41.5, 319.25 -0.72 M198.13 138.95 C236.44 96.99, 273.05 52.78, 318.98 -0.01 M202.86 140.24 C249.53 86.4, 294.15 33.96, 321.56 1.89 M202.86 138.4 C246.14 89.93, 286.38 42.29, 323.04 0.52 M206.48 140.48 C241.3 98.61, 274.31 60.3, 328.18 0.8 M207.44 139.95 C253.39 87.41, 297.76 35.24, 329.02 0.12 M214.03 138.92 C245.75 105.26, 277.22 68.62, 333.11 0.45 M212.89 138.78 C244.62 106.13, 272.8 71.14, 334.58 -0.28 M217.07 140.74 C258.8 94.33, 298.75 45.58, 337.57 -0.65 M218.5 139.08 C265.04 85.77, 311.48 34.22, 339.24 -0.55 M224.79 138.66 C267.15 93.57, 307.06 45.77, 344.11 -0.41 M224.15 139.48 C270.7 85.35, 317.3 33.49, 343.92 0.39 M230.29 138.54 C257.57 109.82, 286.65 76.83, 350.71 -0.81 M227.89 138.83 C261.06 101.28, 293.91 62.74, 349.31 0.01 M233.2 138.86 C277.98 90.87, 320.65 39.55, 356.18 1.88 M234.91 138.85 C272.42 96.29, 309.46 53.44, 354.69 0.14 M237.89 140.35 C274.05 97.85, 310.64 58.99, 358.37 2.47 M239.16 139.88 C286.17 86.13, 332.64 30.83, 358.41 1.48 M244.16 137.52 C272.87 103.53, 304.56 71.8, 357.54 9.85 M244.27 139.62 C281.63 95.11, 317.41 52.69, 358.62 8.79 M249.43 140.26 C286.76 95.64, 324.67 56.09, 359 14.55 M249.2 138.81 C291.16 92.56, 333.96 45.29, 358.33 15.54 M255.42 137.33 C291.13 97.45, 324.88 58.71, 359.43 18.85 M255.16 137.97 C293.95 94.07, 332.14 50, 358.93 20.25 M262.33 138.02 C292.67 102.58, 326.89 60.27, 357.57 24.83 M261.23 139.12 C285.72 112.23, 310.25 82.48, 359.38 27.65 M267.57 139.63 C294.63 106.12, 318.82 77.26, 358.27 32.65 M265.33 138.49 C296.27 102.65, 327.38 68.52, 359.5 33.13 M271.88 141.06 C307.41 98.32, 340.09 61.19, 356.72 40.17 M271.78 138.25 C299.08 107.32, 328.07 75.49, 358.55 39.51 M278.06 138.4 C308.83 103.26, 338.26 69.38, 358.4 45.2 M276.35 139.2 C303.07 106.64, 331.49 75.13, 358.61 45.46 M281.16 138.45 C308.46 110.42, 334.4 77.87, 358.62 49.35 M281.74 138.54 C305.73 111.93, 329.06 84.46, 358.33 50.5 M287.16 138.3 C309.84 115.22, 328.41 90.54, 359.94 55.84 M286.65 138.53 C304.62 120.52, 321.14 100.3, 357.83 56.95 M291.14 138.91 C312.98 114.82, 337.43 88.19, 358.25 61.8 M293.3 138.27 C306.49 122.3, 318.26 107.85, 359 63.41 M299.99 140.63 C312.26 122.17, 326.89 105.35, 356.92 67.84 M298.46 138.35 C321.45 113.07, 342.41 88.91, 359.09 68.48 M302.61 140.83 C315.44 121.77, 329.06 108.09, 356.82 74.37 M302.99 138.63 C315.21 127, 325.82 114.77, 359.05 76.22 M308.54 137.36 C322.52 120.32, 338.89 105.32, 357.85 79.36 M308.85 138.93 C326.27 118.38, 343.48 98.08, 358.33 82.11 M314.21 138.24 C330.79 119.74, 343.17 103.67, 358.32 86.27 M314.66 138.75 C329.97 118.62, 348.9 99.52, 358.73 88.05 M316.94 137.85 C328.17 129.94, 335.27 119.39, 359.08 94.23 M318.05 138.73 C330.4 125.53, 342.89 111.35, 359.77 92.81 M324.42 138.84 C338.23 124.9, 351.57 110.66, 359.63 101.68 M324.5 138.65 C332.79 129.88, 341.48 119.34, 359.19 98.74 M330.18 139.87 C335.66 133.52, 339.83 125.41, 358.17 104.66 M329.11 138.37 C335.42 130.22, 342.54 122.7, 358.34 106.24 M333.58 137.98 C338.97 134.22, 344.17 127.77, 359.11 112.63 M336.02 138.31 C342.36 130.09, 351.56 121.48, 358.03 110.75 M340.08 140.11 C344.25 134.22, 349.1 128.06, 358.48 118.29 M340.91 140.15 C344.87 134.57, 350.24 128.56, 359.26 118.71 M345.86 140.67 C348.62 132.44, 355.4 129.37, 357.99 121.86 M345.06 138.59 C348.67 135.99, 350.8 131.87, 359.69 123 M350.28 140.38 C352.92 135.89, 354.63 133.35, 358.96 129.26 M350.18 139.71 C353.55 135.85, 356.19 132.31, 358.88 130.49" stroke="#228be6" stroke-width="0.5" fill="none"></path><path d="M0.28 0.61 C138.07 -2.13, 273.93 -0.64, 356.62 0.07 M-0.01 0.54 C86.43 -0.34, 173.64 0.32, 356.04 -0.07 M355.29 0.35 C355.34 45.66, 358.25 91.54, 355.6 136.13 M356.23 -0.6 C354.88 36.64, 354.15 71.69, 355.46 138.68 M355.24 139.22 C272.76 137.65, 189.47 137.2, -1.21 138.97 M356.38 138.01 C260.37 139.13, 164.8 139.7, -0.26 137.39 M0.87 137.73 C0 104.55, -1.7 68.7, -1.51 0.58 M-0.85 137.9 C1.33 101.61, 0.26 63.56, -0.89 -0.28" stroke="#1864ab" stroke-width="1" fill="none"></path></g><g transform="translate(537.25 586.25) rotate(0 57.5 13)"><text x="0" y="18" font-family="Virgil, Segoe UI Emoji" font-size="20px" fill="#000000" text-anchor="start" style="white-space: pre;" direction="ltr">Container 2</text></g><g stroke-linecap="round" transform="translate(544.25 628.25) rotate(0 62 32.5)"><path d="M1.9 -0.88 C46.07 0.86, 92.45 -0.49, 122.86 -0.52 M-0.25 -0.16 C39.24 -0.16, 77.09 -1.14, 124.28 0.71 M122.36 0.44 C125.04 21.03, 123.36 38, 123.19 63.2 M124.12 0.86 C123.54 17.94, 123.61 36.29, 123.35 65.02 M124.94 65.95 C93.83 66.44, 58.2 67.7, -0.62 66.78 M124.32 64.84 C80.85 65.75, 35.81 64.06, -0.47 65.42 M0.58 66.43 C-1.41 39.8, -1.79 14.23, -0.67 -0.58 M0.93 65.38 C0.41 38.99, -0.34 14.49, -0.95 -0.6" stroke="#000000" stroke-width="1" fill="none"></path></g><g transform="translate(557.25 628.25) rotate(0 24 13)"><text x="0" y="18" font-family="Virgil, Segoe UI Emoji" font-size="20px" fill="#000000" text-anchor="start" style="white-space: pre;" direction="ltr">Nginx</text></g><g stroke-linecap="round" transform="translate(722.25 628.25) rotate(0 63 33)"><path d="M0.34 1.45 C44.8 0.66, 86.52 0.04, 126.21 -0.05 M0.73 0.87 C48.41 0.1, 96.96 0.91, 126.07 -0.36 M127.27 1.09 C125.06 19.08, 124.65 40.1, 125.48 66.45 M125.4 0.14 C125.54 16.55, 125.43 31.76, 125.58 65.4 M127.79 66.26 C74.28 68.11, 25.71 68.38, 1.08 67.19 M126.74 66.73 C87.66 64.84, 49.66 66.21, 0.95 66.43 M-1.13 66.47 C-1.7 47.68, -0.86 27.62, 1.73 -1.7 M-0.14 65.11 C-1.5 46.56, -1.56 27.07, -0.94 0.47" stroke="#000000" stroke-width="1" fill="none"></path></g><g transform="translate(732.25 632.25) rotate(0 35 26)"><text x="0" y="18" font-family="Virgil, Segoe UI Emoji" font-size="20px" fill="#000000" text-anchor="start" style="white-space: pre;" direction="ltr">Landing</text><text x="0" y="44" font-family="Virgil, Segoe UI Emoji" font-size="20px" fill="#000000" text-anchor="start" style="white-space: pre;" direction="ltr">Page</text></g><g stroke-linecap="round"><g transform="translate(668.25 649.25) rotate(0 27.96759548159315 -0.048876613006029856)"><path d="M0.87 0.58 C10.3 0.44, 46.93 -0.61, 56.06 -0.68 M-0.13 -0.16 C9.2 -0.18, 46 0.22, 55.15 0.5" stroke="#000000" stroke-width="1" fill="none"></path></g><g transform="translate(668.25 649.25) rotate(0 27.96759548159315 -0.048876613006029856)"><path d="M29.63 9.68 C34.3 6.54, 42.43 4.69, 56.82 0 M28.73 9.47 C36.4 7.48, 43.71 3.83, 55.32 -0.32" stroke="#000000" stroke-width="1" fill="none"></path></g><g transform="translate(668.25 649.25) rotate(0 27.96759548159315 -0.048876613006029856)"><path d="M29.99 -9.47 C34.6 -7.7, 42.63 -4.65, 56.82 0 M29.09 -9.68 C36.79 -6.23, 44 -4.44, 55.32 -0.32" stroke="#000000" stroke-width="1" fill="none"></path></g></g><g stroke-linecap="round"><g transform="translate(666.25 674.25) rotate(180 28.551871068682516 0.05835637399928828)"><path d="M0.58 0.06 C9.77 -0.13, 46.06 -0.29, 55.32 -0.31 M-0.57 -0.95 C8.99 -1.05, 48.34 0.7, 57.67 1.07" stroke="#000000" stroke-width="1" fill="none"></path></g><g transform="translate(666.25 674.25) rotate(180 28.551871068682516 0.05835637399928828)"><path d="M31.09 8.41 C38.86 6.94, 47.79 5.72, 57.18 0.75 M30.88 9.82 C41.57 6.43, 50.45 3.38, 56.85 1.29" stroke="#000000" stroke-width="1" fill="none"></path></g><g transform="translate(666.25 674.25) rotate(180 28.551871068682516 0.05835637399928828)"><path d="M31.89 -10.73 C39.54 -6.13, 48.22 -1.29, 57.18 0.75 M31.67 -9.31 C42.24 -5.57, 50.82 -1.49, 56.85 1.29" stroke="#000000" stroke-width="1" fill="none"></path></g></g><g transform="translate(467.24999999999994 67.24999999999997) rotate(0 58.5 13)"><text x="0" y="18" font-family="Virgil, Segoe UI Emoji" font-size="20px" fill="#000000" text-anchor="start" style="white-space: pre;" direction="ltr">Custom VPC</text></g><g stroke-linecap="round" transform="translate(1168.75 345.75) rotate(0 49 79.5)"><path d="M-1.37 1.05 C35.47 2.41, 69.84 0.59, 96.2 1.8 M-0.55 -0.28 C21.54 -1.11, 42.31 -0.38, 98.56 0.95 M97.3 0.55 C98.19 52.47, 98.07 104.65, 99.88 158.41 M98.29 0.64 C97.51 39.95, 97.89 78.35, 97.97 158.54 M98.78 159.83 C73.34 157.59, 42.78 158.12, 0.7 160.19 M98.56 158.29 C69.81 158.72, 39.76 159.42, -0.67 159.49 M-1.53 160.04 C-0.08 107.57, -0.26 55.95, 0.63 1.89 M-0.47 159.19 C1.46 99.3, 1.59 41.61, -0.27 -0.8" stroke="#000000" stroke-width="1" fill="none"></path></g><g transform="translate(1183.75 396.5) rotate(0 42.5 26)"><text x="0" y="18" font-family="Virgil, Segoe UI Emoji" font-size="20px" fill="#000000" text-anchor="start" style="white-space: pre;" direction="ltr">Load</text><text x="0" y="44" font-family="Virgil, Segoe UI Emoji" font-size="20px" fill="#000000" text-anchor="start" style="white-space: pre;" direction="ltr">Balancer</text></g><g stroke-linecap="round" transform="translate(376.24999999999994 43.99999999999997) rotate(0 466.875 394.375)"><path d="M-0.09 -0.46 C367.19 -1.74, 733.5 -2.2, 934.3 -0.47 M0.24 -0.34 C321.32 -2.01, 641.72 -2.12, 933.64 -0.36 M934.18 0.46 C934.79 213.22, 935.75 425.93, 933.26 788.19 M933.83 -0.16 C936.17 194.46, 936.43 388.8, 933.82 788.37 M933.6 788.01 C743.54 789.02, 553.23 788.47, 0.13 789.43 M933.69 788.36 C708.97 786.24, 484.58 786.57, -0.21 788.46 M-0.49 788.79 C-0.59 544.57, -0.22 298.42, 0.18 0.71 M-0.12 788.89 C-0.78 535.49, -0.38 282.26, -0.04 -0.17" stroke="#000000" stroke-width="1" fill="none"></path></g><g transform="translate(387.5 10) rotate(0 49 13)"><text x="0" y="18" font-family="Virgil, Segoe UI Emoji" font-size="20px" fill="#000000" text-anchor="start" style="white-space: pre;" direction="ltr">eu-west-3</text></g><g stroke-linecap="round"><g transform="translate(1168.8323881871997 419.56307320196174) rotate(0 -111.66146407210266 -76.95044668823479)"><path d="M0.04 -1.12 C-37.23 -26.66, -185.69 -127.9, -222.9 -153.25 M-1.4 0.91 C-38.8 -24.95, -186.31 -128.83, -223.36 -154.81" stroke="#000000" stroke-width="1" fill="none"></path></g></g><g stroke-linecap="round"><g transform="translate(1061.3199419016548 650.9690749569593) rotate(53.299305041255316 -4.267228967533981 -142.14612742802132)"><path d="M-0.83 -0.35 C-2.33 -47.73, -7.22 -236.98, -8.34 -283.94 M0.93 -1.58 C-0.8 -48.89, -7.96 -235.93, -9.46 -283.02" stroke="#000000" stroke-width="1" fill="none"></path></g></g><g transform="translate(10 353.75) rotate(0 124.5 31)"><text x="0" y="22" font-family="Virgil, Segoe UI Emoji" font-size="23.846153846153836px" fill="#1864ab" text-anchor="start" style="white-space: pre;" direction="ltr">Images generated </text><text x="0" y="53" font-family="Virgil, Segoe UI Emoji" font-size="23.846153846153836px" fill="#1864ab" text-anchor="start" style="white-space: pre;" direction="ltr">by fargate from ECR</text></g><g stroke-linecap="round"><g transform="translate(275 387.75) rotate(0 124.3896916064806 115.92162723559886)"><path d="M0.38 0.98 C42.09 39.57, 208.1 192.11, 249.66 230.33 M-0.88 0.45 C40.81 39.27, 207.46 192.95, 249.18 231.39" stroke="#1864ab" stroke-width="1" fill="none"></path></g><g transform="translate(275 387.75) rotate(0 124.3896916064806 115.92162723559886)"><path d="M223.14 221.34 C226.78 224.24, 233.64 223.9, 249.47 231.78 M220.6 220.73 C232.42 223.44, 241.61 227.35, 249.7 230.58" stroke="#1864ab" stroke-width="1" fill="none"></path></g><g transform="translate(275 387.75) rotate(0 124.3896916064806 115.92162723559886)"><path d="M237.05 206.25 C237.07 212.97, 240.45 216.4, 249.47 231.78 M234.51 205.64 C241.24 213.78, 245.42 223.12, 249.7 230.58" stroke="#1864ab" stroke-width="1" fill="none"></path></g></g><g stroke-linecap="round"><g transform="translate(270.7907733530924 382.7905271219089) rotate(0 126.58737610857932 -33.39790309375152)"><path d="M0.66 -0.87 C42.93 -12.08, 211.5 -55.12, 253.63 -66.08 M-0.46 1.29 C41.6 -9.8, 209.65 -56.96, 252.38 -68.09" stroke="#1864ab" stroke-width="1" fill="none"></path></g><g transform="translate(270.7907733530924 382.7905271219089) rotate(0 126.58737610857932 -33.39790309375152)"><path d="M226.42 -51.75 C235.42 -57.38, 241.86 -59.48, 250.87 -69.68 M227.25 -51.79 C232.05 -54.74, 237.94 -58.26, 252.8 -67.66" stroke="#1864ab" stroke-width="1" fill="none"></path></g><g transform="translate(270.7907733530924 382.7905271219089) rotate(0 126.58737610857932 -33.39790309375152)"><path d="M221.04 -71.56 C231.85 -71.27, 239.9 -67.42, 250.87 -69.68 M221.87 -71.59 C227.87 -70.33, 234.9 -69.69, 252.8 -67.66" stroke="#1864ab" stroke-width="1" fill="none"></path></g></g><g stroke-linecap="round"><g transform="translate(261.25 639) rotate(0 103.91469852365553 -188.1375646237284)"><path d="M-0.75 0.72 C33.89 -62.1, 173.8 -314.06, 208.58 -377 M1.06 0.05 C35.46 -62.63, 172.66 -313.2, 207.54 -375.85" stroke="#e67700" stroke-width="1" fill="none"></path></g><g transform="translate(261.25 639) rotate(0 103.91469852365553 -188.1375646237284)"><path d="M204.11 -346.49 C203.36 -358.31, 205.25 -367.39, 208.48 -376.68 M203.74 -346.18 C204.05 -352.83, 204.95 -359.19, 207.6 -376.2" stroke="#e67700" stroke-width="1" fill="none"></path></g><g transform="translate(261.25 639) rotate(0 103.91469852365553 -188.1375646237284)"><path d="M186.14 -356.4 C191.88 -364.52, 200.27 -370.02, 208.48 -376.68 M185.77 -356.09 C189.83 -360.53, 194.43 -364.84, 207.6 -376.2" stroke="#e67700" stroke-width="1" fill="none"></path></g></g><g stroke-linecap="round"><g transform="translate(263.75 637.75) rotate(0 102.89107797058296 2.6023245217278372)"><path d="M-0.44 1.16 C33.53 1.66, 169.8 2.8, 204.02 3.22 M1.54 0.73 C35.85 1.36, 172.47 3.77, 206.22 4.48" stroke="#e67700" stroke-width="1" fill="none"></path></g><g transform="translate(263.75 637.75) rotate(0 102.89107797058296 2.6023245217278372)"><path d="M179.78 12.57 C185.99 10.99, 195.83 6.73, 207.97 5.07 M176.85 13.96 C188.16 11.48, 197.59 7.98, 205.33 3.66" stroke="#e67700" stroke-width="1" fill="none"></path></g><g transform="translate(263.75 637.75) rotate(0 102.89107797058296 2.6023245217278372)"><path d="M180.17 -7.95 C186.29 -2.98, 196.02 -0.7, 207.97 5.07 M177.24 -6.56 C188.59 -1.98, 197.89 1.58, 205.33 3.66" stroke="#e67700" stroke-width="1" fill="none"></path></g></g><g transform="translate(26.5 594.25) rotate(0 107 31)"><text x="0" y="22" font-family="Virgil, Segoe UI Emoji" font-size="23.846153846153836px" fill="#e67700" text-anchor="start" style="white-space: pre;" direction="ltr">Shareable subnets</text><text x="0" y="53" font-family="Virgil, Segoe UI Emoji" font-size="23.846153846153836px" fill="#e67700" text-anchor="start" style="white-space: pre;" direction="ltr">through aws RAM</text></g></svg>